<?xml version="1.0" encoding="UTF-8" standalone="no"?>
<svg
   width="24"
   height="24"
   viewBox="0 0 24 24"
   version="1.1"
   id="svg2"
   sodipodi:docname="bxs-buildings.svg"
   inkscape:version="1.3.2 (091e20ef0f, 2023-11-25)"
   xmlns:inkscape="http://www.inkscape.org/namespaces/inkscape"
   xmlns:sodipodi="http://sodipodi.sourceforge.net/DTD/sodipodi-0.dtd"
   xmlns="http://www.w3.org/2000/svg"
   xmlns:svg="http://www.w3.org/2000/svg">
  <defs
     id="defs2" />
  <sodipodi:namedview
     id="namedview2"
     pagecolor="#ffffff"
     bordercolor="#000000"
     borderopacity="0.25"
     inkscape:showpageshadow="2"
     inkscape:pageopacity="0.0"
     inkscape:pagecheckerboard="0"
     inkscape:deskcolor="#d1d1d1"
     inkscape:zoom="23.416667"
     inkscape:cx="12"
     inkscape:cy="12"
     inkscape:window-width="1366"
     inkscape:window-height="738"
     inkscape:window-x="0"
     inkscape:window-y="0"
     inkscape:window-maximized="0"
     inkscape:current-layer="svg2" />
  <path
     d="M7 14.001h2v2H7z"
     id="path1"
     style="fill:#ffffff" />
  <path
     d="M19 2h-8a2 2 0 0 0-2 2v6H5c-1.103 0-2 .897-2 2v9a1 1 0 0 0 1 1h16a1 1 0 0 0 1-1V4a2 2 0 0 0-2-2zM5 20v-8h6v8H5zm9-12h-2V6h2v2zm4 8h-2v-2h2v2zm0-4h-2v-2h2v2zm0-4h-2V6h2v2z"
     id="path2"
     style="fill:#ffffff" />
</svg>
