<?xml version="1.0" encoding="UTF-8" standalone="no"?>
<svg
   width="24"
   height="24"
   viewBox="0 0 24 24"
   version="1.1"
   id="svg1"
   sodipodi:docname="bx-filter-alt.svg"
   inkscape:version="1.3.2 (091e20ef0f, 2023-11-25)"
   xmlns:inkscape="http://www.inkscape.org/namespaces/inkscape"
   xmlns:sodipodi="http://sodipodi.sourceforge.net/DTD/sodipodi-0.dtd"
   xmlns="http://www.w3.org/2000/svg"
   xmlns:svg="http://www.w3.org/2000/svg">
  <defs
     id="defs1" />
  <sodipodi:namedview
     id="namedview1"
     pagecolor="#ffffff"
     bordercolor="#000000"
     borderopacity="0.25"
     inkscape:showpageshadow="2"
     inkscape:pageopacity="0.0"
     inkscape:pagecheckerboard="0"
     inkscape:deskcolor="#d1d1d1"
     inkscape:zoom="23.416667"
     inkscape:cx="11.978648"
     inkscape:cy="12"
     inkscape:window-width="1366"
     inkscape:window-height="738"
     inkscape:window-x="0"
     inkscape:window-y="0"
     inkscape:window-maximized="0"
     inkscape:current-layer="svg1" />
  <path
     d="M21 3H5a1 1 0 0 0-1 1v2.59c0 .523.213 1.037.583 1.407L10 13.414V21a1.001 1.001 0 0 0 1.447.895l4-2c.339-.17.553-.516.553-.895v-5.586l5.417-5.417c.37-.37.583-.884.583-1.407V4a1 1 0 0 0-1-1zm-6.707 9.293A.996.996 0 0 0 14 13v5.382l-2 1V13a.996.996 0 0 0-.293-.707L6 6.59V5h14.001l.002 1.583-5.71 5.71z"
     id="path1"
     style="fill:#ffffff" />
</svg>
